<?xml version="1.0" standalone="no"?><!DOCTYPE svg PUBLIC "-//W3C//DTD SVG 1.1//EN" "http://www.w3.org/Graphics/SVG/1.1/DTD/svg11.dtd"><svg t="1573623457408" class="icon" viewBox="0 0 1024 1024" version="1.1" xmlns="http://www.w3.org/2000/svg" p-id="2504" xmlns:xlink="http://www.w3.org/1999/xlink" width="200" height="200"><defs><style type="text/css"></style></defs><path d="M0 0m102.4 0l819.2 0q102.4 0 102.4 102.4l0 819.2q0 102.4-102.4 102.4l-819.2 0q-102.4 0-102.4-102.4l0-819.2q0-102.4 102.4-102.4Z" fill="#FFBC4E" p-id="2505"></path><path d="M512 455.68a168.96 138.24 0 1 0 337.92 0 168.96 138.24 0 1 0-337.92 0Z" fill="#FFFCD7" p-id="2506"></path><path d="M739.00032 548.29056a137.74848 137.74848 0 0 1-81.37728-28.3648A140.93312 140.93312 0 0 0 789.6064 614.4a137.59488 137.59488 0 0 0 21.08416-1.792 142.51008 142.51008 0 0 1-71.69024-64.31744z" fill="#FFFCD7" p-id="2507"></path><path d="M153.6 517.12a215.04 168.96 0 1 0 430.08 0 215.04 168.96 0 1 0-430.08 0Z" fill="#FFFCD7" p-id="2508"></path><path d="M315.33056 634.7264a178.10432 178.10432 0 0 0 103.56736-35.19488 177.27488 177.27488 0 0 1-194.816 115.0464 179.968 179.968 0 0 0 91.24864-79.85152z" fill="#FFFCD7" p-id="2509"></path><path d="M256.03072 481.28a30.72 30.72 0 1 1-30.72 30.72 30.72 30.72 0 0 1 30.72-30.72z m225.28 0a30.72 30.72 0 1 1-30.72 30.72 30.72 30.72 0 0 1 30.72-30.72z m-112.64 0a30.72 30.72 0 1 1-30.72 30.72 30.72 30.72 0 0 1 30.72-30.72z" fill="#FFBC4E" p-id="2510"></path><path d="M606.75072 430.08a25.74336 25.74336 0 1 1-23.04 25.6 24.41216 24.41216 0 0 1 23.04-25.6z m168.96 0a25.74336 25.74336 0 1 1-23.04 25.6 24.41216 24.41216 0 0 1 23.04-25.6z m-84.48 0a25.74336 25.74336 0 1 1-23.04 25.6 24.41216 24.41216 0 0 1 23.04-25.6z" fill="#FFBC4E" p-id="2511"></path></svg>